# xmcd CD database file generated by Grip 2.95
# 
# Track frame offsets:
#       150
#       16442
#       32185
#       51307
#       72787
#       83015
#       103060
#       119600
#       131692
#       155802
#       165807
#       180620
# 
# Disc length: 2525 seconds
# 
# Revision: 3
# Processed by: cddbd v1.4PL0 Copyright (c) Steve Scherf et al.
# Submitted via: Grip 2.95
# 
DISCID=9e09db0c
DTITLE=The Road Kings  - The Road Kings
DYEAR=1900
DGENRE=
TTITLE0=Long Hard Look
TTITLE1=Wild Side of Love
TTITLE2=Boystown
TTITLE3=Nocturnal Lounge/conga jump
TTITLE4=Conga Jump
TTITLE5=Shoulda, Coulda, Woulda
TTITLE6=Walk on By (2)
TTITLE7=Sweet Sacred Music (2)
TTITLE8=Tongues of Fire
TTITLE9=Driving My Tears Away
TTITLE10=Voodoo Baby
TTITLE11=Wham!Bam!Alacazam! (Hot Damn, it's a Rockabilly Band)
EXTD=
EXTT0=
EXTT1=
EXTT2=
EXTT3=
EXTT4=
EXTT5=
EXTT6=
EXTT7=
EXTT8=
EXTT9=
EXTT10=
EXTT11=
PLAYORDER=
